HIERARCHY
ROOT Hips
{
	OFFSET	0.00	0.00	0.00
	CHANNELS 6 Xposition Yposition Zposition Zrotation Xrotation Yrotation
	JOINT LeftUpLeg
	{
		OFFSET	 0.126116	-0.014019	-0.065224
		CHANNELS 3 Zrotation Xrotation Yrotation
		JOINT LeftLeg
		{
			OFFSET	 0.000000	 0.000000	 0.569914
			CHANNELS 3 Zrotation Xrotation Yrotation
			JOINT LeftFoot
			{
				OFFSET	 0.000000	 0.000000	 0.544423
				CHANNELS 3 Zrotation Xrotation Yrotation
				JOINT LeftToeBase
				{
					OFFSET	 0.000000	 0.000000	 0.207117
					CHANNELS 3 Zrotation Xrotation Yrotation
					End Site
					{
						OFFSET	 0.000000	 0.000000	 0.207117
					}
				}
			}
		}
	}
	JOINT RightUpLeg
	{
		OFFSET	-0.124023	-0.008373	-0.065224
		CHANNELS 3 Zrotation Xrotation Yrotation
		JOINT RightLeg
		{
			OFFSET	 0.000000	 0.000000	 0.570047
			CHANNELS 3 Zrotation Xrotation Yrotation
			JOINT RightFoot
			{
				OFFSET	 0.000000	 0.000000	 0.544354
				CHANNELS 3 Zrotation Xrotation Yrotation
				JOINT RightToeBase
				{
					OFFSET	 0.000000	 0.000000	 0.207540
					CHANNELS 3 Zrotation Xrotation Yrotation
					End Site
					{
						OFFSET	 0.000000	 0.000000	 0.207540
					}
				}
			}
		}
	}
	JOINT Spine
	{
		OFFSET	 0.000184	-0.007763	 0.117403
		CHANNELS 3 Zrotation Xrotation Yrotation
		JOINT Spine1
		{
			OFFSET	 0.000000	 0.000000	 0.137269
			CHANNELS 3 Zrotation Xrotation Yrotation
			JOINT Spine2
			{
				OFFSET	 0.000000	 0.000000	 0.156879
				CHANNELS 3 Zrotation Xrotation Yrotation
				JOINT LeftShoulder
				{
					OFFSET	 0.080501	-0.002496	 0.160144
					CHANNELS 3 Zrotation Xrotation Yrotation
					JOINT LeftArm
					{
						OFFSET	 0.000000	 0.000000	 0.164363
						CHANNELS 3 Zrotation Xrotation Yrotation
						JOINT LeftForeArm
						{
							OFFSET	 0.000000	 0.000000	 0.364576
							CHANNELS 3 Zrotation Xrotation Yrotation
							JOINT LeftHand
							{
								OFFSET	 0.000000	 0.000000	 0.360812
								CHANNELS 3 Zrotation Xrotation Yrotation
								JOINT LeftHandIndex1
								{
									OFFSET	 0.000000	 0.000000	 0.086006
									CHANNELS 3 Zrotation Xrotation Yrotation
									JOINT LeftHandIndex2
									{
										OFFSET	 0.000000	 0.000000	 0.047236
										CHANNELS 3 Zrotation Xrotation Yrotation
										JOINT LeftHandIndex3
										{
											OFFSET	-0.004284	-0.000551	 0.038166
											CHANNELS 3 Zrotation Xrotation Yrotation
											End Site
											{
												OFFSET	-0.004284	-0.000551	 0.038166
											}
										}
									}
								}
							}
						}
					}
				}
				JOINT Neck
				{
					OFFSET	 0.000000	 0.000000	 0.176489
					CHANNELS 3 Zrotation Xrotation Yrotation
					JOINT Head
					{
						OFFSET	 0.000000	-0.001747	 0.077940
						CHANNELS 3 Zrotation Xrotation Yrotation
						End Site
						{
							OFFSET	 0.000000	-0.001747	 0.077940
						}
					}
				}
				JOINT RightShoulder
				{
					OFFSET	-0.080363	 0.000306	 0.159706
					CHANNELS 3 Zrotation Xrotation Yrotation
					JOINT RightArm
					{
						OFFSET	 0.000000	 0.000000	 0.164196
						CHANNELS 3 Zrotation Xrotation Yrotation
						JOINT RightForeArm
						{
							OFFSET	 0.000000	 0.000000	 0.365611
							CHANNELS 3 Zrotation Xrotation Yrotation
							JOINT RightHand
							{
								OFFSET	 0.000000	 0.000000	 0.360648
								CHANNELS 3 Zrotation Xrotation Yrotation
								JOINT RightHandIndex1
								{
									OFFSET	 0.000000	 0.000000	 0.069977
									CHANNELS 3 Zrotation Xrotation Yrotation
									JOINT RightHandIndex2
									{
										OFFSET	 0.000000	 0.000000	 0.052305
										CHANNELS 3 Zrotation Xrotation Yrotation
										JOINT RightHandIndex3
										{
											OFFSET	 0.009002	-0.000782	 0.042196
											CHANNELS 3 Zrotation Xrotation Yrotation
											End Site
											{
												OFFSET	 0.009002	-0.000782	 0.042196
											}
										}
									}
								}
							}
						}
					}
				}
			}
		}
	}
}
MOTION
Frames:    9
Frame Time: 0.03333334
-7.382668	-28.477650	 0.937479	-31.096520	 9.701715	 3.133471	 5.660887	-20.768060	 175.350200	-4.180004	-36.653160	-0.948519	-1.133577	 83.708610	-0.448016	-2.333892	 36.436700	-0.183930	-2.074240	-22.728220	-178.933500	-1.992089	-40.791950	-0.997658	-1.508079	 87.371250	 0.708971	 2.394475	 25.830300	-0.054446	 8.095681	 4.400187	-1.603544	 13.595410	 3.015392	-1.997779	 15.925370	 1.288829	 0.880246	-101.787100	 88.628840	-167.300700	 57.351690	 68.923870	-66.984320	-5.429274	-4.395802	-18.353400	 6.993473	-10.816290	-5.403935	-1.725374	-11.301890	 7.801408	-5.213516	-0.193813	 3.566525	-1.378229	 35.397820	-2.634230	 0.670120	 1.273656	 0.597316	 4.302958	 2.290305	-0.076663	 96.457080	 87.877910	 170.420400	-53.435680	 76.838890	 66.326660	-1.969473	-13.288300	 23.587770	-25.187100	-11.671490	 9.755779	-7.644508	-4.218110	-37.656560	 5.070815	-0.697434	-9.399699	-2.350882	 35.473990	 5.254307
-7.379977	-28.472970	 0.939417	-31.158980	 9.465019	 3.105337	 5.616510	-20.658030	 175.441400	-4.256044	-36.306660	-0.995202	-1.169920	 83.508100	-0.496329	-2.333323	 36.500750	-0.185512	-2.001057	-22.646980	-178.946600	-2.012983	-40.411500	-0.972453	-1.514103	 87.006310	 0.721354	 2.392830	 26.320660	-0.044148	 8.091262	 4.431028	-1.622295	 13.608370	 2.968157	-1.950162	 15.950200	 1.239929	 0.888469	-101.550000	 88.592500	-167.521800	 54.683420	 68.105670	-64.618830	-4.907413	-4.316222	-17.843090	 7.029428	-10.822920	-5.403967	-2.002885	-11.145720	 7.165066	-5.213516	-0.193813	 3.566525	-1.378229	 35.397820	-2.634230	 0.705833	 1.294148	 0.636167	 4.327137	 2.229466	-0.040182	 96.585490	 87.892250	 170.260700	-50.685260	 75.772320	 64.080540	-2.048980	-12.767280	 23.270980	-24.449400	-11.673460	 9.757539	-7.429297	-4.195102	-37.123480	 5.070815	-0.697434	-9.399699	-2.350882	 35.473990	 5.254307
-7.380965	-28.473770	 0.942621	-31.168680	 9.333233	 3.069194	 5.558918	-20.491820	 175.417800	-4.314816	-36.410930	-1.070421	-1.221901	 83.559650	-0.541301	-2.331476	 36.708070	-0.190657	-1.886525	-22.400510	-178.949500	-2.008465	-40.247550	-0.903881	-1.527344	 86.772930	 0.802943	 2.393956	 25.986360	-0.051174	 8.039444	 4.446434	-1.615089	 13.605810	 3.001753	-1.957168	 15.989100	 1.236248	 0.891179	-101.419700	 88.595150	-167.693600	 54.270650	 68.169800	-64.106380	-4.843817	-4.286506	-17.511710	 7.119209	-10.836890	-5.406155	-2.187460	-11.308290	 6.722589	-5.213516	-0.193813	 3.566525	-1.378229	 35.397820	-2.634230	 0.745396	 1.379762	 0.658289	 4.379350	 2.291794	 0.020642	 96.643330	 87.906780	 170.202800	-51.181130	 75.700420	 64.521780	-2.191261	-12.731660	 23.199600	-24.441170	-11.678190	 9.762491	-7.405132	-4.233449	-37.032440	 5.070815	-0.697434	-9.399699	-2.350882	 35.473990	 5.254307
-7.382591	-28.474870	 0.942231	-31.091400	 9.166747	 3.014241	 5.492366	-20.312870	 175.395600	-4.325649	-36.479400	-1.120368	-1.261659	 83.641800	-0.568169	-2.329629	 36.911350	-0.195730	-1.785684	-21.925450	-178.971900	-1.951800	-39.695730	-0.814426	-1.517253	 86.519620	 0.886438	 2.394957	 25.680300	-0.057587	 7.938492	 4.409888	-1.602365	 13.576710	 3.046076	-1.964740	 16.020610	 1.254967	 0.890332	-101.214200	 88.604790	-167.975400	 53.804790	 68.318690	-63.529410	-4.823336	-4.255847	-17.125340	 7.239165	-10.858610	-5.409507	-2.788609	-11.553740	 5.309098	-5.213516	-0.193813	 3.566525	-1.378229	 35.397820	-2.634230	 0.768461	 1.461044	 0.698958	 4.441937	 2.445485	 0.041819	 96.735360	 87.927460	 170.107400	-51.709640	 75.655430	 64.945000	-2.321726	-12.691340	 23.133440	-24.414910	-11.685590	 9.771132	-7.366519	-4.248572	-36.922030	 5.070815	-0.697434	-9.399699	-2.350882	 35.473990	 5.254307
-7.384834	-28.476210	 0.941936	-30.920890	 9.025242	 2.934588	 5.413782	-20.127700	 175.376200	-4.290435	-36.501300	-1.146801	-1.308178	 83.730800	-0.559896	-2.327687	 37.123140	-0.201029	-1.717918	-21.213870	-179.003000	-1.769243	-38.831060	-0.670238	-1.391624	 86.415210	 0.936069	 2.395054	 25.649040	-0.058243	 7.776398	 4.285496	-1.569463	 13.507670	 3.091863	-1.967254	 16.034920	 1.288719	 0.886397	-100.914700	 88.614210	-168.374800	 53.387070	 68.495080	-62.998610	-4.805667	-4.224056	-16.718330	 7.370329	-10.886440	-5.415518	-3.357811	-11.768460	 3.981223	-5.213516	-0.193813	 3.566525	-1.378229	 35.397820	-2.634230	 0.766469	 1.561364	 0.754036	 4.507785	 2.659669	-0.004856	 96.874710	 87.957990	 169.962600	-52.183880	 75.647320	 65.246960	-2.429314	-12.646430	 23.076970	-24.366280	-11.695810	 9.783978	-7.316260	-4.237193	-36.801800	 5.070815	-0.697434	-9.399699	-2.350882	 35.473990	 5.254307
-7.387082	-28.477550	 0.941773	-30.719840	 8.938893	 2.850564	 5.331411	-19.963800	 175.362300	-4.225902	-36.479350	-1.154767	-1.338753	 83.789280	-0.544956	-2.325979	 37.305270	-0.205621	-1.748369	-20.468700	-178.986600	-1.510578	-37.929770	-0.536804	-1.255598	 86.449510	 0.981349	 2.393314	 26.176320	-0.047185	 7.598774	 4.128410	-1.534313	 13.424640	 3.123935	-1.961439	 16.032000	 1.322181	 0.881532	-100.571800	 88.614640	-168.810400	 53.096690	 68.655310	-62.620110	-4.799013	-4.194793	-16.375430	 7.474281	-10.912610	-5.424708	-3.480138	-11.872140	 3.696323	-5.213516	-0.193813	 3.566525	-1.378229	 35.397820	-2.634230	 0.749328	 1.655447	 0.818134	 4.561066	 2.876272	-0.100946	 97.047220	 87.995140	 169.785000	-52.484070	 75.674650	 65.331700	-2.499580	-12.603210	 23.037120	-24.303280	-11.707040	 9.798862	-7.266491	-4.206191	-36.697430	 5.070815	-0.697434	-9.399699	-2.350882	 35.473990	 5.254307
-7.389787	-28.478890	 0.941698	-30.472490	 8.887581	 2.767370	 5.217710	-19.775550	 175.345900	-4.133667	-36.407230	-1.160814	-1.380238	 83.803500	-0.518636	-2.324182	 37.494850	-0.210403	-1.868363	-19.698370	-179.031300	-1.223771	-36.883590	-0.447923	-1.399869	 86.523910	 1.270205	 2.390910	 26.851500	-0.032922	 7.381284	 3.927921	-1.522044	 13.330200	 3.151361	-1.944982	 16.019400	 1.366423	 0.874623	-100.095900	 88.596530	-169.381100	 52.814550	 68.889120	-62.304660	-4.883167	-4.162737	-16.029500	 7.569881	-10.944630	-5.439583	-3.346957	-11.924530	 4.003556	-5.213516	-0.193813	 3.566525	-1.378229	 35.397820	-2.634230	 0.729326	 1.758898	 0.903279	 4.612432	 3.135846	-0.209217	 97.318920	 88.052470	 169.509000	-52.749470	 75.726680	 65.324980	-2.549950	-12.548470	 23.002550	-24.206050	-11.722560	 9.820149	-7.207648	-4.149527	-36.588800	 5.070815	-0.697434	-9.399699	-2.350882	 35.473990	 5.254307
-7.392097	-28.479640	 0.941723	-30.302430	 8.863408	 2.772439	 5.102658	-19.611760	 175.263400	-4.066011	-36.301200	-1.184060	-1.412392	 83.745960	-0.525614	-2.322846	 37.634140	-0.213936	-1.999865	-19.231570	-179.207200	-1.066181	-36.068460	-0.451832	-1.422563	 86.477910	 1.302688	 2.390862	 26.863840	-0.032656	 7.198538	 3.763747	-1.609462	 13.275280	 3.170911	-1.943386	 16.006920	 1.409949	 0.867829	-99.616330	 88.555440	-169.919900	 52.656220	 69.128520	-62.228200	-5.002611	-4.152812	-15.783240	 7.679530	-10.976830	-5.455947	-3.288745	-11.960120	 4.137424	-5.213516	-0.193813	 3.566525	-1.378229	 35.397820	-2.634230	 0.730738	 1.837707	 0.983758	 4.639831	 3.353860	-0.246241	 97.639720	 88.121010	 169.192300	-53.011480	 75.767500	 65.382420	-2.566873	-12.493850	 22.981160	-24.094790	-11.738770	 9.842877	-7.157264	-4.082667	-36.509370	 5.070815	-0.697434	-9.399699	-2.350882	 35.473990	 5.254307
-7.394216	-28.480160	 0.941821	-30.247100	 8.848829	 2.910605	 5.003055	-19.459630	 175.041100	-4.044245	-36.157590	-1.232557	-1.446957	 83.646930	-0.567925	-2.322198	 37.701330	-0.215644	-2.161860	-18.890360	-179.459700	-1.049308	-35.483490	-0.555594	-1.542994	 86.440860	 1.287964	 2.393279	 26.188100	-0.046935	 7.046685	 3.619948	-1.830839	 13.268950	 3.166676	-1.970856	 15.996600	 1.436336	 0.863563	-99.118160	 88.483280	-170.438500	 52.559470	 69.406230	-62.297240	-5.201379	-4.155750	-15.621930	 7.776384	-11.010830	-5.475479	-3.245120	-11.975360	 4.237879	-5.213516	-0.193813	 3.566525	-1.378229	 35.397820	-2.634230	 0.761477	 1.928033	 1.061615	 4.644262	 3.481087	-0.214399	 98.045530	 88.209210	 168.806500	-53.167080	 75.813300	 65.332700	-2.556544	-12.432810	 22.968050	-23.959170	-11.757330	 9.868915	-7.112862	-4.003673	-36.454260	 5.070815	-0.697434	-9.399699	-2.350882	 35.473990	 5.254307
